# xmcd CD database file
# Copyright (C) 1997 Ti Kan
# 
# Track frame offsets:
#     150
#     18637
#     39145
#     57675
#     73760
#     93685
#     113892
#     131387
#     147302
#     162242
#     179530
# 
# Disc length: 2495 seconds
# 
# Revision: 1
# Processed by: cddbd v1.4b41PL1 Copyright (c) Steve Scherf et al.
# Submitted via: DiscPlay 4.0.4
# 
DISCID=a009bd0b
DTITLE=Julio Iglesias - Un Hombre Solo
DYEAR=1900
DGENRE=
TTITLE0=O Melhor De Tua Vida
TTITLE1=Todo O Amor Que Te Faz Falta
TTITLE2=O Que Fazer
TTITLE3=Procure Ser Feliz
TTITLE4=Que No Se Rompa La Noche
TTITLE5=America
TTITLE6=Un Hombre Solo
TTITLE7=Intentando Otra Vez Enamorarte
TTITLE8=Doce Superstar
TTITLE9=Evadiendome
TTITLE10=El Mar Que Llevo Dentro
EXTD=
EXTT0=
EXTT1=
EXTT2=
EXTT3=
EXTT4=
EXTT5=
EXTT6=
EXTT7=
EXTT8=
EXTT9=
EXTT10=
PLAYORDER=
